<?xml version="1.0" standalone="no"?>
<svg xmlns="http://www.w3.org/2000/svg" viewBox="0 0 157.584 36" width="157.584" height="36"><g fill="#8dff63" color="#8dff63" transform="translate(0 4) scale(0.6666667)"><svg width="42.0" height="42.0" x="0.0" y="0.0" viewBox="0 0 42 42"><path fill="currentColor" fill-rule="nonzero" d="M21 41.41L41.41.59H.59L21 41.41zm0-7.61l-11.5-23h15.4l-1.7 3.4H15l6 12 9.4-18.8H7.8L6.1 4h29.8L21 33.8z"></path></svg></g><path fill="#734e15" fill-rule="nonzero" d="M11.54 3.89Q10.51 3.14 9.77 2.80Q9.02 2.45 8.04 2.45L8.04 2.45Q6.07 2.45 4.66 3.46L4.66 3.46Q3.58 4.25 3.05 5.52Q2.52 6.79 2.52 8.38L2.52 8.38Q2.52 9.89 3.22 11.03Q3.91 12.17 5.02 12.77Q6.12 13.37 7.32 13.37L7.32 13.37Q8.52 13.37 9.40 13.00Q10.27 12.62 10.80 12.02L10.80 12.02Q11.62 10.99 11.62 9.29L11.62 9.29Q11.62 9.05 11.23 8.95Q10.85 8.86 10.13 8.86L10.13 8.86L8.40 8.88Q7.70 8.88 7.30 8.62Q6.89 8.35 6.89 7.94L6.89 7.94Q6.89 7.37 7.27 7.09Q7.66 6.82 8.30 6.82L8.30 6.82Q9.07 6.82 10.37 6.91L10.37 6.91Q11.66 7.01 12.24 7.01L12.24 7.01Q13.08 7.01 13.60 7.54Q14.11 8.06 14.11 9.07L14.11 9.07Q14.11 10.01 13.70 11.26Q13.30 12.50 12.55 13.49L12.55 13.49Q11.83 14.45 10.43 14.94Q9.02 15.43 7.32 15.43L7.32 15.43Q5.90 15.43 4.58 14.98Q3.26 14.52 2.38 13.70L2.38 13.70Q1.27 12.67 0.64 11.24Q0 9.82 0 8.40L0 8.40Q0 6.34 0.97 4.38Q1.94 2.42 3.60 1.34L3.60 1.34Q4.32 0.86 5.62 0.55Q6.91 0.24 7.99 0.24L7.99 0.24Q9.67 0.24 10.94 0.76Q12.22 1.27 12.89 2.23L12.89 2.23Q13.18 2.66 13.18 3L13.18 3Q13.18 3.38 12.84 3.72Q12.50 4.06 12.17 4.06L12.17 4.06Q12.02 4.06 11.83 4.01Q11.64 3.96 11.54 3.89L11.54 3.89ZM26.14 7.73Q26.33 8.06 26.45 8.70Q26.57 9.34 26.57 9.84L26.57 9.84Q26.57 10.78 26.16 12.50L26.16 12.50Q24.50 15.53 21.26 15.53L21.26 15.53Q20.06 15.53 18.82 14.74Q17.57 13.94 17.09 12.91L17.09 12.91Q16.44 10.85 16.44 10.30L16.44 10.30Q16.44 9.34 16.86 8.26Q17.28 7.18 17.93 6.38L17.93 6.38Q18.34 5.83 19.39 5.44Q20.45 5.04 21.31 5.04L21.31 5.04Q22.99 5.04 24.17 5.68Q25.34 6.31 26.14 7.73L26.14 7.73ZM24.05 11.59Q24.17 11.28 24.17 9.98L24.17 9.98Q24.17 9.29 23.92 8.62Q23.66 7.94 23.18 7.46L23.18 7.46Q23.14 7.42 22.92 7.31Q22.70 7.20 22.33 7.09Q21.96 6.98 21.48 6.98L21.48 6.98Q20.14 6.98 19.51 8.06Q18.89 9.14 18.89 10.51L18.89 10.51Q18.89 10.75 19.02 11.42Q19.15 12.10 19.25 12.26L19.25 12.26Q19.32 12.43 19.62 12.73Q19.92 13.03 20.36 13.26Q20.81 13.49 21.29 13.49L21.29 13.49Q22.37 13.49 23.02 12.97Q23.66 12.46 24.05 11.59L24.05 11.59ZM39.86 13.58Q39.98 13.63 40.25 13.70Q40.51 13.78 40.63 13.85Q40.75 13.92 40.75 14.06L40.75 14.06Q40.78 14.64 40.33 15.01Q39.89 15.38 39.29 15.38L39.29 15.38Q38.35 15.38 37.82 14.88Q37.30 14.38 37.06 13.34L37.06 13.34Q36.96 12.94 36.96 12.22L36.96 12.22Q36.96 11.81 37.01 10.90L37.01 10.90Q37.06 9.94 37.06 9.36L37.06 9.36Q37.06 8.52 36.59 7.88Q36.12 7.25 35.28 7.25L35.28 7.25Q34.78 7.25 34.22 7.55Q33.67 7.85 33.46 8.28L33.46 8.28Q33.10 8.98 32.95 9.79L32.95 9.79Q32.69 11.23 32.69 12.79L32.69 12.79Q32.69 13.54 32.71 13.94L32.71 13.94Q32.71 14.04 32.72 14.32Q32.74 14.59 32.68 14.82Q32.62 15.05 32.47 15.24L32.47 15.24Q32.35 15.36 32.10 15.44Q31.85 15.53 31.63 15.53L31.63 15.53Q31.30 15.53 30.79 15.24Q30.29 14.95 30.22 14.59L30.22 14.59L30.19 14.18Q30.19 13.97 30.24 13.68L30.24 13.68Q30.53 12 30.53 10.75L30.53 10.75Q30.53 10.20 30.50 9.89L30.50 9.89L30.48 8.76Q30.48 8.18 30.19 7.64Q29.90 7.10 29.52 7.10L29.52 7.10Q29.40 7.10 29.18 7.19Q28.97 7.27 28.82 7.27L28.82 7.27Q28.58 7.27 28.31 7.03Q28.03 6.79 28.03 6.53L28.03 6.53Q28.03 6.02 28.37 5.71L28.37 5.71Q28.73 5.42 29.08 5.26Q29.42 5.09 29.88 5.09L29.88 5.09Q30.26 5.09 30.50 5.16Q30.74 5.23 31.15 5.47L31.15 5.47Q31.37 5.59 31.66 6Q31.94 6.41 32.14 7.15L32.14 7.15Q32.76 6 33.68 5.53Q34.61 5.06 36.05 5.06L36.05 5.06Q36.60 5.06 37.24 5.42Q37.87 5.78 38.33 6.26L38.33 6.26Q38.76 6.79 39.05 7.57Q39.34 8.35 39.34 8.98L39.34 8.98Q39.34 9.34 39.29 10.15L39.29 10.15Q39.22 10.80 39.22 11.52L39.22 11.52Q39.22 13.20 39.86 13.58L39.86 13.58ZM50.78 7.22Q50.28 8.09 49.42 9Q48.55 9.91 47.21 11.16L47.21 11.16Q45.94 12.36 45.79 12.53L45.79 12.53L44.98 13.27Q45.46 13.37 46.78 13.37L46.78 13.37Q47.30 13.37 48.31 13.18L48.31 13.18Q49.27 12.98 49.73 12.98L49.73 12.98Q50.11 12.98 50.60 13.10Q51.10 13.22 51.53 13.46L51.53 13.46Q51.74 13.56 51.89 13.84Q52.03 14.11 52.03 14.35L52.03 14.35Q52.03 14.66 51.82 15.05Q51.60 15.43 51.31 15.43L51.31 15.43Q51.05 15.43 50.62 15.34L50.62 15.34Q49.97 15.22 49.70 15.22L49.70 15.22Q48.86 15.22 47.47 15.34L47.47 15.34Q45.55 15.48 44.64 15.48L44.64 15.48Q43.49 15.48 42.83 15.19Q42.17 14.90 42.17 14.11L42.17 14.11Q42.17 13.51 42.77 12.73Q43.37 11.95 44.23 11.09L44.23 11.09L44.57 10.73Q44.95 10.34 45.86 9.58L45.86 9.58Q46.78 8.78 47.26 8.32Q47.74 7.85 48.05 7.32L48.05 7.32L44.21 7.34Q43.27 7.34 42.83 7.13Q42.38 6.91 42.38 6.31L42.38 6.31Q42.38 5.98 42.62 5.68Q42.86 5.38 43.25 5.30L43.25 5.30Q44.11 5.18 46.78 5.18L46.78 5.18Q49.44 5.18 50.45 5.45L50.45 5.45Q50.71 5.54 50.87 5.80Q51.02 6.05 51.02 6.31L51.02 6.31Q51.02 6.74 50.78 7.22L50.78 7.22ZM64.54 14.28Q64.54 14.81 63.97 15.17Q63.41 15.53 62.93 15.53L62.93 15.53Q62.02 15.53 61.48 15.30Q60.94 15.07 60.48 14.45L60.48 14.45Q59.86 15 58.78 15.28Q57.70 15.55 56.78 15.55L56.78 15.55Q55.30 15.55 54.34 14.75Q53.38 13.94 53.38 12.38L53.38 12.38Q53.38 11.71 53.74 11.15Q54.10 10.58 54.72 10.15L54.72 10.15Q55.42 9.70 56.30 9.44Q57.19 9.19 58.15 9.19L58.15 9.19Q58.66 9.19 59.35 9.38Q60.05 9.58 60.43 9.79L60.43 9.79L60.43 9.41Q60.43 8.11 59.81 7.62Q59.18 7.13 57.79 7.13L57.79 7.13Q57.38 7.13 56.99 7.30Q56.59 7.46 56.09 7.75L56.09 7.75Q55.42 8.11 54.82 8.11L54.82 8.11Q54.60 8.11 54.41 7.81Q54.22 7.51 54.22 7.27L54.22 7.27Q54.22 6.58 54.88 6.07Q55.54 5.57 56.45 5.32Q57.36 5.06 58.08 5.06L58.08 5.06Q58.80 5.06 59.74 5.34Q60.67 5.62 61.27 6.10L61.27 6.10Q61.99 6.72 62.39 7.55Q62.78 8.38 62.78 9.36L62.78 9.36Q62.78 9.67 62.74 10.30L62.74 10.30Q62.69 10.97 62.69 11.45L62.69 11.45Q62.69 11.66 62.64 12.10L62.64 12.10Q62.59 12.62 62.59 12.94L62.59 12.94Q62.59 13.22 62.81 13.43Q63.02 13.63 63.31 13.63L63.31 13.63L63.98 13.61Q64.25 13.61 64.39 13.80Q64.54 13.99 64.54 14.28L64.54 14.28ZM56.81 13.66Q57.84 13.66 58.54 13.44Q59.23 13.22 60.22 12.65L60.22 12.65Q60.31 12.24 60.34 11.57L60.34 11.57Q59.02 10.94 58.15 10.94L58.15 10.94Q57.17 10.94 56.40 11.30Q55.63 11.66 55.63 12.58L55.63 12.58Q55.63 13.03 56.02 13.34Q56.40 13.66 56.81 13.66L56.81 13.66ZM70.01 0.22Q73.27 0.22 75.18 1.12Q77.09 2.02 78.07 3.12L78.07 3.12Q78.86 4.03 79.37 5.22Q79.87 6.41 79.87 8.06L79.87 8.06Q79.87 9.29 79.32 10.62Q78.77 11.95 77.88 12.77L77.88 12.77Q76.94 13.66 76.12 14.21Q75.29 14.76 73.88 15.11Q72.48 15.46 70.32 15.46L70.32 15.46Q68.69 15.46 67.37 15.08Q66.05 14.71 66.05 13.82L66.05 13.82Q66.05 13.46 66.37 13.26Q66.70 13.06 67.08 13.06L67.08 13.06Q67.30 13.06 67.37 13.08L67.37 13.08Q67.54 11.50 67.54 9.72L67.54 9.72Q67.54 7.73 67.44 6.42Q67.34 5.11 67.18 3.82L67.18 3.82Q67.15 3.65 67.07 2.88Q66.98 2.11 66.98 1.32L66.98 1.32Q66.98 0.82 67.49 0.47Q67.99 0.12 68.52 0.12L68.52 0.12Q68.83 0.12 69.36 0.17L69.36 0.17Q69.79 0.22 70.01 0.22L70.01 0.22ZM69.70 13.20Q70.27 13.30 71.21 13.30L71.21 13.30Q72.79 13.30 74.21 12.64Q75.62 11.98 76.49 10.79Q77.35 9.60 77.35 8.04L77.35 8.04Q77.35 6.41 76.78 5.26Q76.20 4.10 75 3.36L75 3.36Q74.11 2.81 72.82 2.56Q71.52 2.30 69.70 2.30L69.70 2.30Q69.70 2.88 69.77 3.74L69.77 3.74Q69.77 4.03 69.82 4.75L69.82 4.75Q69.96 7.54 69.96 9.24L69.96 9.24Q69.96 11.71 69.70 13.20L69.70 13.20ZM81.82 10.34Q81.82 9.43 82.15 8.51Q82.49 7.58 83.04 6.82L83.04 6.82Q83.59 6.05 84.79 5.56Q85.99 5.06 86.93 5.06L86.93 5.06Q87.89 5.06 88.88 5.33Q89.88 5.59 90.26 6.14L90.26 6.14Q91.15 7.39 91.15 8.59L91.15 8.59Q91.15 9.24 90.88 9.70Q90.60 10.15 90.10 10.68L90.10 10.68Q89.69 11.11 88.81 11.26Q87.94 11.40 87.07 11.40L87.07 11.40Q86.52 11.40 85.73 11.29Q84.94 11.18 84.19 11.02L84.19 11.02Q84.24 11.50 84.43 11.95Q84.62 12.41 84.89 12.65L84.89 12.65Q85.37 13.10 85.88 13.22Q86.40 13.34 87.22 13.34L87.22 13.34Q88.08 13.34 88.82 13.06L88.82 13.06Q89.42 12.84 89.81 12.84L89.81 12.84Q90.26 12.84 90.50 13.12Q90.74 13.39 90.74 13.82L90.74 13.82Q90.74 14.42 90.05 14.81Q89.35 15.19 88.45 15.37Q87.55 15.55 87 15.55L87 15.55Q85.87 15.55 84.82 15.14Q83.76 14.74 83.06 13.99L83.06 13.99Q82.49 13.32 82.15 12.37Q81.82 11.42 81.82 10.34L81.82 10.34ZM87.05 7.10Q86.52 7.10 85.99 7.31Q85.46 7.51 85.13 7.87L85.13 7.87Q84.70 8.33 84.54 8.60Q84.38 8.88 84.34 9.36L84.34 9.36Q84.94 9.55 86.83 9.55L86.83 9.55Q87.86 9.55 88.43 9.24Q88.99 8.93 88.99 8.42L88.99 8.42Q88.99 7.92 88.37 7.51Q87.74 7.10 87.05 7.10L87.05 7.10ZM104.40 13.58Q104.52 13.63 104.78 13.70Q105.05 13.78 105.17 13.85Q105.29 13.92 105.29 14.06L105.29 14.06Q105.31 14.64 104.87 15.01Q104.42 15.38 103.82 15.38L103.82 15.38Q102.89 15.38 102.36 14.88Q101.83 14.38 101.59 13.34L101.59 13.34Q101.50 12.94 101.50 12.22L101.50 12.22Q101.50 11.81 101.54 10.90L101.54 10.90Q101.59 9.94 101.59 9.36L101.59 9.36Q101.59 8.52 101.12 7.88Q100.66 7.25 99.82 7.25L99.82 7.25Q99.31 7.25 98.76 7.55Q98.21 7.85 97.99 8.28L97.99 8.28Q97.63 8.98 97.49 9.79L97.49 9.79Q97.22 11.23 97.22 12.79L97.22 12.79Q97.22 13.54 97.25 13.94L97.25 13.94Q97.25 14.04 97.26 14.32Q97.27 14.59 97.21 14.82Q97.15 15.05 97.01 15.24L97.01 15.24Q96.89 15.36 96.64 15.44Q96.38 15.53 96.17 15.53L96.17 15.53Q95.83 15.53 95.33 15.24Q94.82 14.95 94.75 14.59L94.75 14.59L94.73 14.18Q94.73 13.97 94.78 13.68L94.78 13.68Q95.06 12 95.06 10.75L95.06 10.75Q95.06 10.20 95.04 9.89L95.04 9.89L95.02 8.76Q95.02 8.18 94.73 7.64Q94.44 7.10 94.06 7.10L94.06 7.10Q93.94 7.10 93.72 7.19Q93.50 7.27 93.36 7.27L93.36 7.27Q93.12 7.27 92.84 7.03Q92.57 6.79 92.57 6.53L92.57 6.53Q92.57 6.02 92.90 5.71L92.90 5.71Q93.26 5.42 93.61 5.26Q93.96 5.09 94.42 5.09L94.42 5.09Q94.80 5.09 95.04 5.16Q95.28 5.23 95.69 5.47L95.69 5.47Q95.90 5.59 96.19 6Q96.48 6.41 96.67 7.15L96.67 7.15Q97.30 6 98.22 5.53Q99.14 5.06 100.58 5.06L100.58 5.06Q101.14 5.06 101.77 5.42Q102.41 5.78 102.86 6.26L102.86 6.26Q103.30 6.79 103.58 7.57Q103.87 8.35 103.87 8.98L103.87 8.98Q103.87 9.34 103.82 10.15L103.82 10.15Q103.75 10.80 103.75 11.52L103.75 11.52Q103.75 13.20 104.40 13.58L104.40 13.58ZM108.24 0.02Q109.08 0.10 109.70 0.47Q110.33 0.84 110.33 1.58L110.33 1.58Q110.33 2.14 109.81 2.46Q109.30 2.78 108.58 2.78L108.58 2.78Q107.88 2.78 107.62 2.42Q107.35 2.06 107.35 1.68L107.35 1.68Q107.35 0.96 107.51 0.48Q107.66 0 108.24 0.02L108.24 0.02ZM110.16 6.34L110.16 10.66L110.16 11.35Q110.16 12.29 110.22 13.12Q110.28 13.94 110.38 14.78L110.38 14.78Q110.35 15.02 110.02 15.28Q109.68 15.53 109.42 15.53L109.42 15.53Q108.96 15.53 108.49 15.35Q108.02 15.17 107.93 14.90L107.93 14.90Q107.78 14.14 107.78 13.54L107.78 13.54Q107.78 11.57 107.66 9.12L107.66 9.12Q107.57 6.96 107.57 6.10L107.57 6.10Q107.57 5.66 108 5.35Q108.43 5.04 108.91 5.04L108.91 5.04Q109.61 5.04 109.88 5.35Q110.16 5.66 110.16 6.34L110.16 6.34ZM119.88 10.03Q120.07 10.15 120.64 10.48Q121.20 10.80 121.39 11.23Q121.58 11.66 121.58 12.43L121.58 12.43Q121.58 13.30 121.08 13.96Q120.58 14.62 119.78 14.98L119.78 14.98Q119.21 15.24 118.38 15.38Q117.55 15.53 117.07 15.53L117.07 15.53Q116.59 15.53 115.84 15.38Q115.08 15.24 114.79 15.12L114.79 15.12Q114.05 14.69 113.51 14.06Q112.97 13.44 112.97 12.79L112.97 12.79Q112.97 12.31 113.28 12.04Q113.59 11.76 114.10 11.76L114.10 11.76Q114.34 11.76 114.60 11.94Q114.86 12.12 114.96 12.31L114.96 12.31Q115.22 12.94 115.85 13.25Q116.47 13.56 117.12 13.56L117.12 13.56Q117.96 13.56 118.68 13.28Q119.40 13.01 119.40 12.53L119.40 12.53Q119.40 12.31 119.29 12.18Q119.18 12.05 118.99 11.90L118.99 11.90Q118.66 11.66 117.98 11.51Q117.31 11.35 117.12 11.30L117.12 11.30Q116.14 11.09 115.20 10.66L115.20 10.66Q114.26 10.20 113.71 9.58Q113.16 8.95 113.16 7.97L113.16 7.97Q113.16 7.32 113.64 6.61Q114.12 5.90 114.72 5.62L114.72 5.62Q115.15 5.45 116.17 5.26Q117.19 5.06 117.55 5.06L117.55 5.06Q118.10 5.06 118.75 5.17Q119.40 5.28 119.74 5.52L119.74 5.52Q120.38 5.90 120.79 6.32Q121.20 6.74 121.20 7.27L121.20 7.27Q121.20 7.54 121.08 7.84Q120.96 8.14 120.79 8.21L120.79 8.21Q120.43 8.38 119.95 8.38L119.95 8.38Q119.74 8.38 119.60 8.26Q119.47 8.14 119.26 7.87L119.26 7.87Q118.99 7.46 118.75 7.39L118.75 7.39Q118.46 7.32 117.91 7.21Q117.36 7.10 117.17 7.10L117.17 7.10Q116.62 7.10 116.03 7.42Q115.44 7.73 115.44 8.14L115.44 8.14Q115.44 8.35 115.62 8.47Q115.80 8.59 116.00 8.69Q116.21 8.78 116.28 8.81L116.28 8.81Q116.78 9.05 117.40 9.22Q118.01 9.38 118.15 9.43L118.15 9.43Q119.45 9.74 119.88 10.03L119.88 10.03Z" transform="translate(36, 10.284)"></path></svg>